<?xml version="1.0" encoding="UTF-8" standalone="no"?><!DOCTYPE svg PUBLIC "-//W3C//DTD SVG 1.1//EN" "http://www.w3.org/Graphics/SVG/1.1/DTD/svg11.dtd"><svg width="100%" height="100%" viewBox="0 0 1145 202" version="1.1" xmlns="http://www.w3.org/2000/svg" xmlns:xlink="http://www.w3.org/1999/xlink" xml:space="preserve" xmlns:serif="http://www.serif.com/" style="fill-rule:evenodd;clip-rule:evenodd;stroke-linejoin:round;stroke-miterlimit:2;"><path d="M79.251,75.312l6.952,-17.612c-3.244,-3.089 -7.493,-5.523 -12.745,-7.299c-5.253,-1.777 -10.969,-2.665 -17.148,-2.665c-11.587,-0 -21.667,2.472 -30.241,7.415c-8.574,4.944 -15.062,11.587 -19.465,19.929c-4.403,8.342 -6.604,17.534 -6.604,27.575c0,9.578 2.086,18.307 6.257,26.186c4.171,7.878 10.157,14.096 17.959,18.654c7.801,4.557 16.877,6.836 27.228,6.836c6.488,-0 12.513,-1.12 18.074,-3.36c5.562,-2.24 9.887,-4.442 12.977,-6.605l0.927,-9.5l-0.695,-0l-0.232,0.231c-3.244,2.627 -6.913,4.867 -11.007,6.72c-4.094,1.854 -9.539,2.781 -16.337,2.781c-7.415,0 -14.135,-2.085 -20.16,-6.257c-6.025,-4.171 -10.698,-9.732 -14.02,-16.684c-3.321,-6.952 -4.982,-14.29 -4.982,-22.014c0,-12.668 2.665,-23.134 7.995,-31.399c5.33,-8.265 13.942,-12.32 25.837,-12.166c6.643,0.155 11.973,1.584 15.99,4.287c4.016,2.704 7.029,6.527 9.037,11.471c0.464,1.39 0.85,2.549 1.159,3.476l3.244,-0Zm43.352,-20.277c-8.496,4.867 -15.294,11.587 -20.392,20.161c-5.098,8.574 -7.647,18.113 -7.647,28.618c0,12.05 2.356,21.821 7.068,29.314c4.712,7.492 10.737,12.899 18.075,16.221c7.338,3.321 15.101,4.982 23.288,4.982c10.196,-0 19.465,-2.395 27.808,-7.184c8.342,-4.789 14.946,-11.47 19.812,-20.044c4.867,-8.574 7.3,-18.268 7.3,-29.082c-0,-16.221 -4.094,-28.657 -12.282,-37.308c-8.187,-8.651 -20.006,-12.977 -35.454,-12.977c-9.887,-0 -19.079,2.433 -27.576,7.299m41.711,5.214c5.407,3.399 9.81,8.806 13.209,16.221c3.398,7.415 5.098,16.762 5.098,28.039c-0,12.822 -3.322,23.019 -9.964,30.588c-6.643,7.57 -15.217,11.355 -25.722,11.355c-6.643,-0 -12.823,-2.086 -18.539,-6.257c-5.715,-4.171 -10.234,-9.771 -13.556,-16.8c-3.321,-7.029 -4.982,-14.715 -4.982,-23.057c0,-14.676 3.399,-25.876 10.196,-33.6c6.798,-7.725 15.835,-11.587 27.112,-11.587c6.025,0 11.741,1.7 17.148,5.098m62.47,-8.574c-3.63,0.618 -7.145,1.082 -10.543,1.391l-0,6.951l6.951,1.623l0,81.336l-8.11,4.171l-0,4.403l30.125,-0l-0,-4.403l-8.111,-4.171l0,-93.155c-3.244,0.618 -6.681,1.236 -10.312,1.854m2.202,38.699l0.695,-1.159c3.862,-8.033 8.226,-14.869 13.092,-20.508c4.867,-5.638 11.471,-8.458 19.813,-8.458c8.342,0 14.599,2.549 18.77,7.647c4.171,5.098 6.257,13.44 6.257,25.027l-0,50.053l-3.244,4.171l-0,4.403l24.563,-0l-0,-4.403l-8.111,-4.171l0,-51.907c0,-9.115 -0.656,-16.646 -1.969,-22.593c-1.314,-5.948 -4.403,-10.892 -9.27,-14.831c-4.866,-3.939 -12.32,-5.909 -22.361,-5.909c-3.553,-0 -7.068,0.927 -10.544,2.781c-3.476,1.853 -7.299,4.673 -11.47,8.458c-4.171,3.785 -9.656,9.153 -16.453,16.105l0.232,15.294Zm66.274,5.793l0.463,-1.159c3.399,-9.114 7.493,-17.186 12.282,-24.215c4.789,-7.029 11.509,-10.544 20.16,-10.544c8.497,0 14.985,2.511 19.465,7.531c4.48,5.021 6.72,13.402 6.72,25.143l0,50.053l-3.244,4.171l0,4.403l25.027,-0l-0,-4.403l-8.111,-4.171l0,-51.907c0,-10.042 -0.733,-18.036 -2.201,-23.984c-1.468,-5.947 -4.789,-10.659 -9.964,-14.135c-5.176,-3.476 -12.939,-5.214 -23.289,-5.214c-5.561,-0 -11.471,2.665 -17.727,7.995c-6.257,5.329 -13.016,12.088 -20.276,20.276l0.695,20.16Zm120.827,-47.736c-3.245,0.618 -6.682,1.236 -10.312,1.854c-3.631,0.618 -7.145,1.081 -10.544,1.39l0,6.952l6.952,1.622l-0,82.727l-8.111,4.171l0,4.403l30.125,-0l0,-4.171l-8.11,-4.403l-0,-94.545Zm1.274,-29.429c2.086,-2.163 3.128,-4.712 3.128,-7.647c0,-3.09 -1.042,-5.755 -3.128,-7.995c-2.086,-2.24 -4.596,-3.36 -7.531,-3.36c-2.935,0 -5.446,1.12 -7.531,3.36c-2.086,2.24 -3.129,4.905 -3.129,7.995c0,2.935 1.043,5.484 3.129,7.647c2.085,2.162 4.596,3.244 7.531,3.244c2.935,-0 5.445,-1.082 7.531,-3.244m48.875,31.515c-3.244,0.618 -6.701,1.236 -10.312,1.853c-3.63,0.618 -7.164,1.082 -10.543,1.391l-0,6.952l6.952,1.622l-0,80.641l-8.111,4.171l0,4.403l30.125,-0l-0,-4.403l-8.111,-4.171l0,-92.459Zm-9.037,45.65c1.525,-4.017 3.959,-8.806 7.299,-14.367c3.322,-5.562 7.609,-10.544 12.861,-14.947c5.233,-4.402 11.027,-6.604 17.38,-6.604c8.805,0 15.313,2.511 19.581,7.531c4.248,5.021 6.372,13.402 6.372,25.143l0,50.053l-3.244,4.171l0,4.403l25.258,-0l0,-4.403l-8.11,-4.171l-0,-51.907c-0,-9.578 -1.043,-17.457 -3.128,-23.636c-2.086,-6.18 -5.948,-11.007 -11.587,-14.483c-5.658,-3.476 -13.652,-5.214 -23.984,-5.214c-3.109,-0 -5.889,0.579 -8.342,1.738c-2.472,1.159 -6.005,3.746 -10.543,7.763c-4.558,4.016 -11.336,10.582 -20.277,19.697l0.464,19.233Zm119.282,-38.699c-8.033,6.489 -12.05,15.681 -12.05,27.576c-0,10.351 3.399,17.882 10.196,22.594c6.797,4.711 14.908,7.067 24.331,7.067c7.416,0 14.715,-1.545 21.899,-4.634c7.183,-3.09 13.054,-7.493 17.611,-13.209c4.557,-5.716 6.836,-12.281 6.836,-19.697c-0,-11.432 -3.283,-19.194 -9.849,-23.288c-6.565,-4.094 -15.178,-6.141 -25.837,-6.141c-14.058,-0 -25.104,3.244 -33.137,9.732m47.156,2.781c4.712,4.789 7.068,11.2 7.068,19.234c0,7.878 -2.279,14.56 -6.836,20.044c-4.557,5.484 -11.779,8.226 -21.666,8.226c-6.489,0 -12.012,-2.355 -16.569,-7.067c-4.557,-4.712 -6.836,-11.394 -6.836,-20.045c0,-6.797 2.124,-13.092 6.373,-18.886c4.248,-5.793 10.929,-8.689 20.044,-8.689c7.57,-0 13.711,2.394 18.422,7.183m-1.738,-1.158l22.015,2.317l9.269,-8.574l-1.159,-3.708l-30.356,2.318l0.231,7.647Zm-25.49,74.616c-4.325,-0 -7.763,-0.657 -10.312,-1.97c-2.549,-1.313 -3.823,-3.283 -3.823,-5.909c-0,-4.016 1.545,-6.874 4.635,-8.574c3.089,-1.699 6.951,-3.012 11.586,-3.939l2.085,-0.464l-7.415,-1.622c-2.781,0.618 -6.372,1.97 -10.775,4.056c-4.403,2.085 -8.342,4.557 -11.818,7.415c-3.476,2.858 -5.214,5.754 -5.214,8.69c-0,3.553 1.815,6.604 5.445,9.153c3.631,2.549 8.613,3.823 14.947,3.823c2.935,0 5.484,-0.077 7.647,-0.231c6.797,-0.309 12.59,-0.464 17.379,-0.464c10.814,0 18.848,2.086 24.1,6.257c5.253,4.171 7.879,10.119 7.879,17.843c-0,4.48 -1.352,8.844 -4.055,13.093c-2.704,4.248 -7.068,7.724 -13.093,10.427c-6.025,2.704 -13.595,4.056 -22.709,4.056c-10.66,-0 -19.465,-2.743 -26.417,-8.227c-6.952,-5.484 -10.428,-12.783 -10.428,-21.898c0,-4.944 1.159,-8.999 3.476,-12.166c2.317,-3.167 5.137,-5.6 8.458,-7.299c3.321,-1.7 7.995,-3.631 14.02,-5.793l2.317,-0.696l-10.196,0l-1.391,0.696c-7.106,2.626 -13.826,6.333 -20.16,11.123c-6.334,4.789 -9.501,11.045 -9.501,18.769c0,10.196 4.21,18.075 12.629,23.637c8.42,5.561 20.199,8.342 35.339,8.342c11.123,-0 20.778,-1.699 28.966,-5.098c8.188,-3.399 14.483,-8.072 18.886,-14.02c4.403,-5.947 6.604,-12.474 6.604,-19.581c-0,-19.619 -11.123,-29.429 -33.369,-29.429l-25.722,-0Zm191.755,-36.034c-3.321,-3.785 -8.149,-5.677 -14.483,-5.677c-3.244,-0 -7.492,0.463 -12.745,1.39c-4.017,0.618 -6.952,0.927 -8.806,0.927c-5.87,0 -10.35,-1.429 -13.44,-4.287c-3.089,-2.858 -4.634,-6.836 -4.634,-11.934c-0,-6.334 2.201,-11.393 6.604,-15.178c4.403,-3.785 10.852,-5.677 19.349,-5.677c4.944,-0 9.655,1.158 14.136,3.476c4.48,2.317 7.338,4.48 8.573,6.488l1.623,4.866l3.707,-3.012c2.163,-1.854 3.399,-2.781 3.708,-2.781c-0.155,-1.39 -0.193,-3.051 -0.116,-4.982c0.077,-1.931 0.348,-3.746 0.811,-5.446c-2.472,-2.162 -6.411,-4.055 -11.818,-5.677c-5.407,-1.622 -10.66,-2.433 -15.758,-2.433c-7.26,-0 -14.212,1.545 -20.855,4.634c-6.643,3.09 -11.973,7.454 -15.989,13.093c-4.017,5.639 -6.025,12.243 -6.025,19.813c-0,8.033 2.24,13.788 6.72,17.264c4.48,3.475 9.655,5.213 15.526,5.213c2.626,0 6.411,-0.309 11.354,-0.926c4.326,-0.618 7.493,-0.927 9.501,-0.927c5.562,-0 9.81,1.544 12.745,4.634c2.935,3.09 4.403,7.106 4.403,12.05c0,6.488 -2.549,11.857 -7.647,16.105c-5.098,4.248 -11.046,6.373 -17.843,6.373c-6.643,-0 -12.359,-1.198 -17.148,-3.592c-4.789,-2.395 -8.651,-5.832 -11.586,-10.312l-2.086,0.463c-0.309,2.009 -1.158,3.863 -2.549,5.562c-1.39,1.699 -2.626,3.012 -3.707,3.939l-0,0.695c2.471,4.017 6.411,7.107 11.818,9.27c5.407,2.162 11.586,3.244 18.538,3.244c8.188,-0 15.564,-1.738 22.13,-5.214c6.565,-3.476 11.702,-8.342 15.41,-14.599c3.707,-6.257 5.561,-13.324 5.561,-21.203c0,-6.643 -1.66,-11.857 -4.982,-15.642m47.369,-42.638c-8.497,4.867 -15.294,11.587 -20.392,20.161c-5.098,8.574 -7.647,18.113 -7.647,28.618c0,12.05 2.356,21.821 7.068,29.314c4.712,7.492 10.736,12.899 18.075,16.221c7.338,3.321 15.1,4.982 23.288,4.982c10.196,-0 19.465,-2.395 27.807,-7.184c8.343,-4.789 14.947,-11.47 19.813,-20.044c4.866,-8.574 7.3,-18.268 7.3,-29.082c-0,-16.221 -4.094,-28.657 -12.282,-37.308c-8.188,-8.651 -20.006,-12.977 -35.454,-12.977c-9.887,-0 -19.079,2.433 -27.576,7.299m41.711,5.214c5.407,3.399 9.81,8.806 13.209,16.221c3.398,7.415 5.098,16.762 5.098,28.039c-0,12.822 -3.322,23.019 -9.965,30.588c-6.643,7.57 -15.216,11.355 -25.721,11.355c-6.643,-0 -12.823,-2.086 -18.539,-6.257c-5.716,-4.171 -10.234,-9.771 -13.556,-16.8c-3.321,-7.029 -4.982,-14.715 -4.982,-23.057c0,-14.676 3.399,-25.876 10.196,-33.6c6.797,-7.725 15.835,-11.587 27.112,-11.587c6.025,0 11.741,1.7 17.148,5.098m76.277,-5.214c-8.497,4.867 -15.294,11.587 -20.392,20.161c-5.098,8.574 -7.647,18.113 -7.647,28.618c0,12.05 2.356,21.821 7.068,29.314c4.712,7.492 10.737,12.899 18.075,16.221c7.338,3.321 15.1,4.982 23.288,4.982c10.196,-0 19.465,-2.395 27.808,-7.184c8.342,-4.789 14.946,-11.47 19.812,-20.044c4.867,-8.574 7.3,-18.268 7.3,-29.082c-0,-16.221 -4.094,-28.657 -12.282,-37.308c-8.188,-8.651 -20.006,-12.977 -35.454,-12.977c-9.887,-0 -19.079,2.433 -27.576,7.299m41.711,5.214c5.407,3.399 9.81,8.806 13.209,16.221c3.398,7.415 5.098,16.762 5.098,28.039c-0,12.822 -3.322,23.019 -9.965,30.588c-6.642,7.57 -15.216,11.355 -25.721,11.355c-6.643,-0 -12.823,-2.086 -18.539,-6.257c-5.716,-4.171 -10.234,-9.771 -13.556,-16.8c-3.321,-7.029 -4.982,-14.715 -4.982,-23.057c0,-14.676 3.399,-25.876 10.196,-33.6c6.798,-7.725 15.835,-11.587 27.112,-11.587c6.025,0 11.741,1.7 17.148,5.098m72.782,-9.732c-3.244,0.618 -6.681,1.236 -10.312,1.853c-3.63,0.618 -7.145,1.082 -10.544,1.391l0,6.952l6.952,1.622l0,80.641l-8.11,4.171l-0,4.403l30.124,-0l0,-4.403l-8.11,-4.171l-0,-92.459Zm-9.037,45.65c1.544,-4.017 3.978,-8.806 7.299,-14.367c3.321,-5.562 7.608,-10.544 12.861,-14.947c5.252,-4.402 11.046,-6.604 17.38,-6.604c8.805,0 15.332,2.511 19.581,7.531c4.248,5.021 6.372,13.402 6.372,25.143l0,50.053l-3.244,4.171l-0,4.403l25.258,-0l0,-4.403l-8.11,-4.171l-0,-51.907c-0,-9.578 -1.043,-17.457 -3.129,-23.636c-2.085,-6.18 -5.947,-11.007 -11.586,-14.483c-5.639,-3.476 -13.633,-5.214 -23.984,-5.214c-3.09,-0 -5.87,0.579 -8.342,1.738c-2.472,1.159 -5.986,3.746 -10.544,7.763c-4.557,4.016 -11.316,10.582 -20.276,19.697l0.464,19.233Z" style="fill:#1e1c1a;fill-rule:nonzero;"/></svg>