<?xml version="1.0" encoding="UTF-8" standalone="no"?><!DOCTYPE svg PUBLIC "-//W3C//DTD SVG 1.1//EN" "http://www.w3.org/Graphics/SVG/1.1/DTD/svg11.dtd"><svg width="100%" height="100%" viewBox="0 0 1150 182" version="1.1" xmlns="http://www.w3.org/2000/svg" xmlns:xlink="http://www.w3.org/1999/xlink" xml:space="preserve" xmlns:serif="http://www.serif.com/" style="fill-rule:evenodd;clip-rule:evenodd;stroke-linejoin:round;stroke-miterlimit:2;"><path d="M24.2,182l0,-19.6c0,-22.8 -5.8,-32.4 -10.8,-40.4l11.6,0c4.2,10.8 12.4,24 32.8,24c23.8,0 40.8,-20.8 40.8,-52.8c0,-32 -17,-52.8 -40.8,-52.8c-21.2,0 -28.6,14 -33,23.8l-11.4,0c4,-5.6 8.6,-14 8.6,-20.8l-22,0l0,138.6l24.2,0Zm24.2,-55.2c-15,0 -25.2,-11 -25.2,-33.6c0,-22.6 10.4,-33.6 25.2,-33.6c14,0 24.8,8.8 24.8,33.6c0,25 -10.8,33.6 -24.8,33.6m87.396,16.2l-0,-40.8c-0,-25.8 9.2,-35.8 30.2,-35.8c3.6,0 7.2,0.2 10.8,0.6l-0,-24.8c-1.8,-0.4 -3.8,-0.6 -7.4,-0.6c-20.8,0 -29,12.2 -33.4,31.2l-11.4,0c4.6,-7.4 9.4,-19.6 9.4,-29.4l-22.4,0l-0,99.6l24.2,0Zm96.042,3c29,0 50.2,-21.2 50.2,-52.8c-0,-31.2 -21,-52.8 -50.2,-52.8c-29.2,0 -50.4,21.6 -50.4,52.8c-0,30.4 21.4,52.8 50.4,52.8m-0,-19.8c-14.8,0 -25,-10.6 -25,-32.6c-0,-22.2 10.2,-33.4 25,-33.4c14.6,0 24.8,11.2 24.8,33.4c-0,22 -10.2,32.6 -24.8,32.6m90.595,-123.2l-25.6,0l0,24.6l25.6,0l0,-24.6Zm-25.8,179c16.4,0 25.2,-9.4 25.2,-25.4l0,-113.2l-24,0l0,109.2c0,6.4 -2.8,9.2 -9.4,9.2l-14.6,0l0,20.2l22.8,0Zm89.18,-36c26.399,0 40.2,-13.4 46.6,-29l-22,-8.2c-3.601,8.4 -10.2,18 -24.201,18c-12.799,0 -23.8,-7.4 -24.599,-27.6l70.2,0c3.2,-33 -14.4,-58.8 -46.4,-58.8c-27.6,0 -48.201,21 -48.201,52.8c0,33 19.201,52.8 48.601,52.8m-23.601,-64.8c1.8,-14.6 11.201,-22.6 23.201,-22.6c12.6,0 21.399,8 22.2,22.6l-45.401,0Zm190.88,61.8l-47.4,-59.4l42.2,-40.2l-30.6,0l-50.4,49.6l-7,-7.2c8.8,-7.6 12.8,-14.4 12.8,-33.2l-0,-49.6l-24.2,0l-0,140l24.2,0l-0,-28l16,-15.2l33.6,43.2l30.8,0Zm76.616,0l0,-19.8l-21.2,0c-6.4,0 -9.2,-3 -9.2,-9.4l0,-51.4l26.4,0l0,-19l-26.4,0l0,-31.2l-24.4,0l0,31.2l-21.6,0l0,19l21.6,0l0,55.2c0,15.8 9,25.4 25.2,25.4l29.6,0Zm51.859,2.8c27.8,0 44,-12.6 44,-32c-0,-20.4 -18.4,-28 -34,-31.2l-13,-2.4c-12,-2.2 -15,-5.2 -15,-11c-0,-6 5,-11.2 16.2,-11.2c12.4,0 19,7.6 21.8,15.2l20.6,-8.8c-4.2,-11.2 -16.6,-24 -41.4,-24c-24.2,0 -40.8,12.4 -40.8,31c-0,19.2 13.2,26 32.4,29.8l13.4,2.6c11.6,2.2 14.6,6.8 14.6,12.4c-0,6.8 -6.2,11.6 -17.8,11.6c-18,0 -22.8,-12.2 -24.2,-17.8l-22.4,7.2c4.2,18.2 23.2,28.6 45.6,28.6m112.316,-2.8l0,-140l-21.2,0c-8,17.8 -23.4,27.4 -41.2,29.6l0,26.2c16.4,-1.2 26.2,-12.2 31.8,-28.6l10.4,0c-3,6.6 -4.6,13.4 -4.6,23.2l0,89.6l24.8,0Zm120.58,0l-0,-22.4l-38.2,0c-18.4,0 -27.2,5 -35,10.6l-5.4,-9.2c30.6,-15.8 52.8,-28.2 64.8,-42.6c8.2,-10.2 12.8,-21.8 12.8,-35.6c-0,-25.6 -18,-43.8 -48.6,-43.8c-33,0 -49.6,23 -50.2,48.2l25.4,4c0.2,-16.2 7.6,-30 24.2,-30c12.8,0 22.6,8.6 22.6,24c-0,22.2 -19.8,39.6 -71,69.8l-0,27l98.6,0Zm62.5,3c31,0 49.8,-15.6 49.8,-38.6c-0,-19 -14.6,-30.4 -36.4,-31.8l-0,-9.4c18.6,-1.2 33.4,-10.2 33.4,-29.8c-0,-20 -17.4,-36.4 -46.8,-36.4c-29.2,0 -46,18.2 -48.2,40.4l25.6,4.2c1,-13.8 9.4,-23 22.6,-23c11.8,0 21.6,7.6 21.6,19.8c-0,12.8 -10,20.2 -21.8,20.2l-11.8,0l-0,21l12,0c14.799,0 24,8.4 24,20.6c-0,13.4 -10,21.2 -24,21.2c-15.601,0 -25,-10.2 -26.4,-26.8l-26,5.4c3.2,26.6 21.799,43 52.399,43m151.596,-3l0,-35.4l20.8,0l0,-20.8l-20.8,0l0,-83.8l-36.4,0l-55,82.4l0,22.2l67,0l0,35.4l24.4,0Zm-38.8,-56.2c-13.6,0 -17.6,4 -22,8.4l-7.8,-6l1.6,-2.4l42.6,-63.2l1,-1.6l8.6,5.4c-5.2,8.2 -9.6,18 -9.6,36l0,23.4l-14.4,0Z" style="fill:#00f;fill-rule:nonzero;"/></svg>