<?xml version="1.0" encoding="UTF-8" standalone="no"?><!DOCTYPE svg PUBLIC "-//W3C//DTD SVG 1.1//EN" "http://www.w3.org/Graphics/SVG/1.1/DTD/svg11.dtd"><svg width="100%" height="100%" viewBox="0 0 1017 152" version="1.1" xmlns="http://www.w3.org/2000/svg" xmlns:xlink="http://www.w3.org/1999/xlink" xml:space="preserve" xmlns:serif="http://www.serif.com/" style="fill-rule:evenodd;clip-rule:evenodd;stroke-linejoin:round;stroke-miterlimit:2;"><path d="M20.167,151.667l-0,-16.334c-0,-19 -4.834,-27 -9,-33.666l9.666,-0c3.5,9 10.334,20 27.334,20c19.833,-0 34,-17.334 34,-44c-0,-26.667 -14.167,-44 -34,-44c-17.667,-0 -23.834,11.666 -27.5,19.833l-9.5,0c3.333,-4.667 7.166,-11.667 7.166,-17.333l-18.333,-0l0,115.5l20.167,-0Zm20.166,-46c-12.5,-0 -21,-9.167 -21,-28c0,-18.834 8.667,-28 21,-28c11.667,-0 20.667,7.333 20.667,28c0,20.833 -9,28 -20.667,28m81.163,13.5l-0,-34c-0,-21.5 7.667,-29.834 25.167,-29.834c3,0 6,0.167 9,0.5l-0,-20.666c-1.5,-0.334 -3.167,-0.5 -6.167,-0.5c-17.333,-0 -24.167,10.166 -27.833,26l-9.501,-0c3.834,-6.167 7.834,-16.334 7.834,-24.5l-18.667,-0l0,83l20.167,-0Zm83.837,2.5c24.167,-0 41.834,-17.667 41.834,-44c-0,-26 -17.5,-44 -41.834,-44c-24.333,-0 -42,18 -42,44c0,25.333 17.834,44 42,44m0,-16.5c-12.333,-0 -20.833,-8.834 -20.833,-27.167c-0,-18.5 8.5,-27.833 20.833,-27.833c12.167,-0 20.667,9.333 20.667,27.833c-0,18.333 -8.5,27.167 -20.667,27.167m82.663,-102.667l-21.334,0l0,20.5l21.334,0l-0,-20.5Zm-21.5,149.167c13.666,-0 21,-7.834 21,-21.167l-0,-94.333l-20,-0l-0,91c-0,5.333 -2.334,7.666 -7.834,7.666l-12.166,0l-0,16.834l19,-0Zm80.5,-30c22,-0 33.5,-11.167 38.833,-24.167l-18.333,-6.833c-3,7 -8.5,15 -20.167,15c-10.666,-0 -19.833,-6.167 -20.5,-23l58.5,-0c2.667,-27.5 -12,-49 -38.667,-49c-23,-0 -40.166,17.5 -40.166,44c-0,27.5 16,44 40.5,44m-19.667,-54c1.5,-12.167 9.334,-18.834 19.333,-18.834c10.5,0 17.834,6.667 18.5,18.834l-37.833,-0Zm165,51.5l-39.5,-49.5l35.167,-33.5l-25.5,-0l-42,41.333l-5.834,-6c7.334,-6.333 10.667,-12 10.667,-27.667l0,-41.333l-20.167,0l0,116.667l20.167,-0l0,-23.334l13.334,-12.666l27.999,36l25.667,-0Zm65.163,-0l-0,-16.5l-17.667,-0c-5.333,-0 -7.667,-2.5 -7.667,-7.834l0,-42.833l22,0l0,-15.833l-22,-0l0,-26l-20.333,-0l0,26l-18,-0l0,15.833l18,0l0,46c0,13.167 7.5,21.167 21,21.167l24.667,-0Zm46.833,2.333c23.167,0 36.667,-10.5 36.667,-26.667c-0,-17 -15.334,-23.333 -28.334,-26l-10.833,-2c-10,-1.833 -12.5,-4.333 -12.5,-9.166c-0,-5 4.167,-9.334 13.5,-9.334c10.333,0 15.833,6.334 18.167,12.667l17.166,-7.333c-3.5,-9.334 -13.833,-20 -34.5,-20c-20.166,-0 -34,10.333 -34,25.833c0,16 11,21.667 27,24.833l11.167,2.167c9.667,1.833 12.167,5.667 12.167,10.333c-0,5.667 -5.167,9.667 -14.834,9.667c-15,0 -19,-10.167 -20.166,-14.833l-18.667,6c3.5,15.166 19.333,23.833 38,23.833m98.996,-2.333l-0,-116.667l-17.667,0c-6.667,14.833 -19.5,22.833 -34.333,24.667l-0,21.833c13.666,-1 21.833,-10.167 26.5,-23.833l8.666,-0c-2.5,5.5 -3.833,11.166 -3.833,19.333l0,74.667l20.667,-0Zm106.833,-0l0,-18.667l-31.833,0c-15.334,0 -22.667,4.167 -29.167,8.833l-4.5,-7.666c25.5,-13.167 44,-23.5 54,-35.5c6.833,-8.5 10.667,-18.167 10.667,-29.667c-0,-21.333 -15,-36.5 -40.5,-36.5c-27.5,0 -41.334,19.167 -41.834,40.167l21.167,3.333c0.167,-13.5 6.333,-25 20.167,-25c10.666,0 18.833,7.167 18.833,20c0,18.5 -16.5,33 -59.167,58.167l0,22.5l82.167,-0Zm58.333,2.5c25.834,-0 41.5,-13 41.5,-32.167c0,-15.833 -12.166,-25.333 -30.333,-26.5l0,-7.833c15.5,-1 27.833,-8.5 27.833,-24.834c0,-16.666 -14.5,-30.333 -39,-30.333c-24.333,0 -38.333,15.167 -40.166,33.667l21.333,3.5c0.833,-11.5 7.833,-19.167 18.833,-19.167c9.834,0 18,6.333 18,16.5c0,10.667 -8.333,16.833 -18.166,16.833l-9.834,0l0,17.5l10,0c12.334,0 20,7 20,17.167c0,11.167 -8.333,17.667 -20,17.667c-13,-0 -20.833,-8.5 -22,-22.334l-21.666,4.5c2.666,22.167 18.166,35.834 43.666,35.834m130.667,-2.5l0,-29.5l17.333,-0l0,-17.334l-17.333,0l0,-69.833l-30.333,0l-45.834,68.667l0,18.5l55.834,-0l-0,29.5l20.333,-0Zm-32.333,-46.834c-11.334,0 -14.667,3.334 -18.334,7l-6.5,-5l1.334,-2l35.5,-52.666l0.833,-1.334l7.167,4.5c-4.334,6.834 -8,15 -8,30l-0,19.5l-12,0Z" style="fill:#00f;fill-rule:nonzero;"/></svg>