<?xml version="1.0" encoding="UTF-8" standalone="no"?>
<svg
   xmlns:dc="http://purl.org/dc/elements/1.1/"
   xmlns:cc="http://creativecommons.org/ns#"
   xmlns:rdf="http://www.w3.org/1999/02/22-rdf-syntax-ns#"
   xmlns:svg="http://www.w3.org/2000/svg"
   xmlns="http://www.w3.org/2000/svg"
   viewBox="0 0 1122.52 793.70667"
   height="793.70667"
   width="1122.52"
   xml:space="preserve"
   id="svg2"
   version="1.1"><metadata
     id="metadata8"><rdf:RDF><cc:Work
         rdf:about=""><dc:format>image/svg+xml</dc:format><dc:type
           rdf:resource="http://purl.org/dc/dcmitype/StillImage" /></cc:Work></rdf:RDF></metadata><defs
     id="defs6" /><g
     transform="matrix(1.3333333,0,0,-1.3333333,0,793.70667)"
     id="g10"><g
       transform="scale(0.1)"
       id="g12"><path
         id="path14"
         style="fill:#231f20;fill-opacity:1;fill-rule:nonzero;stroke:none"
         d="m 1108.9,2636.59 -34.15,-107.91 c 30.05,-20.49 114.75,-56.01 225.39,-56.01 200.81,0 368.84,103.82 368.84,312.82 0,135.24 -58.74,203.54 -240.43,245.89 -195.34,45.08 -239.05,101.09 -239.05,188.52 0,91.52 56,185.78 196.71,185.78 84.69,0 162.56,-49.18 207.64,-95.62 h 10.92 l 25.96,94.25 c -32.79,19.13 -114.75,51.91 -232.23,51.91 -116.11,0 -301.9,-54.64 -301.9,-262.28 0,-127.04 53.28,-202.17 247.26,-256.82 174.85,-49.17 215.83,-106.55 215.83,-184.41 0,-153 -102.45,-218.57 -222.66,-218.57 -103.82,0 -183.05,66.94 -218.57,102.45 z m 1217.15,259.55 c 0,161.2 -39.62,259.55 -213.11,259.55 -105.18,0 -185.78,-79.23 -234.96,-139.33 v 510.9 l -176.22,-46.45 v -40.98 l 81.97,9.56 v -912.52 l -95.63,-23.22 v -27.32 h 285.51 v 24.59 l -95.63,25.95 v 387.96 c 36.89,75.13 96.99,154.36 187.15,154.36 103.82,0 166.66,-72.4 166.66,-177.58 v -364.74 l -38.25,-23.22 v -27.32 h 228.13 v 27.32 l -95.62,23.22 z m 198.88,-73.76 c 0,-165.3 91.53,-282.78 251.36,-282.78 69.66,0 143.43,43.72 180.31,80.6 l 5.47,-4.1 v -46.44 c -21.86,-24.59 -98.36,-99.72 -229.5,-99.72 -198.08,0 -303.26,128.4 -303.26,331.95 0,219.93 147.53,353.8 303.26,353.8 143.44,0 248.62,-91.52 248.62,-244.52 l -107.91,-76.5 z m 338.78,69.67 15.03,15.02 c 0,105.19 -51.91,192.61 -158.46,192.61 -102.46,0 -188.52,-112.01 -188.52,-213.1 z m 313.92,635.21 -176.22,-46.45 v -40.98 l 81.96,9.56 v -912.52 l -95.62,-23.22 v -27.32 h 285.5 v 24.59 l -95.62,25.95 z m 314.86,0 -176.22,-46.45 v -40.98 l 81.96,9.56 v -912.52 l -95.62,-23.22 v -27.32 h 285.5 v 24.59 l -95.62,25.95 z m 2120.07,-374.3 -118.85,-31.42 h -222.66 v 96.99 c 0,110.65 30.05,210.37 131.14,210.37 35.52,0 65.57,-13.66 77.86,-25.95 l 8.2,2.73 32.78,107.92 -1.36,4.1 c -13.66,4.09 -56.01,9.56 -80.6,9.56 -66.93,0 -116.11,-31.42 -217.2,-176.22 -31.42,-43.72 -45.08,-105.19 -45.08,-158.46 v -71.04 h -247.25 v 96.99 c 0,110.65 30.05,210.37 131.14,210.37 35.51,0 65.57,-13.66 77.86,-25.95 l 8.2,2.73 32.78,107.92 -1.36,4.1 c -13.66,4.09 -56.01,9.56 -80.6,9.56 -66.94,0 -116.11,-31.42 -217.2,-176.22 -31.42,-43.72 -45.08,-105.19 -45.08,-158.46 v -71.04 h -28.69 l -4.1,-2.73 -42.34,-54.64 v -10.93 h 75.13 v -516.37 l -95.63,-23.22 v -27.32 h 314.2 v 24.59 l -124.31,25.95 v 516.37 h 247.25 v -516.37 l -95.62,-23.22 v -27.32 h 314.19 v 24.59 l -124.31,25.95 v 516.37 h 247.25 v -516.37 l -95.62,-23.22 v -27.32 h 285.5 v 24.59 l -95.62,25.95 z m -113.38,218.57 c 0,-36.88 28.68,-68.3 66.93,-68.3 36.89,0 65.57,31.42 65.57,68.3 0,39.61 -28.68,71.03 -65.57,71.03 -38.25,0 -66.93,-31.42 -66.93,-71.03 z m 749.53,-409.82 21.86,139.34 c -46.45,34.15 -124.31,54.64 -206.28,54.64 -236.32,0 -359.27,-159.83 -359.27,-366.1 0,-206.27 144.8,-319.65 336.05,-319.65 125.68,0 203.54,65.57 219.94,76.49 l -1.37,54.65 h -4.1 c -23.22,-19.13 -77.86,-65.57 -191.25,-65.57 -192.61,0 -255.45,152.99 -255.45,289.6 0,163.92 91.53,275.94 243.16,273.21 99.72,-1.37 143.43,-49.18 163.93,-136.61 z m 130.46,-139.33 c 0,-165.3 91.52,-282.78 251.35,-282.78 69.67,0 143.44,43.72 180.32,80.6 l 5.46,-4.1 v -46.44 c -21.85,-24.59 -98.35,-99.72 -229.49,-99.72 -198.08,0 -303.27,128.4 -303.27,331.95 0,219.93 147.54,353.8 303.27,353.8 143.43,0 248.62,-91.52 248.62,-244.52 l -107.92,-76.5 z m 338.78,69.67 15.02,15.02 c 0,105.19 -51.91,192.61 -158.46,192.61 -102.45,0 -188.51,-112.01 -188.51,-213.1 l 331.95,5.47" /><path
         id="path16"
         style="fill:none;stroke:#231f20;stroke-width:62.95100021;stroke-linecap:butt;stroke-linejoin:miter;stroke-miterlimit:4;stroke-dasharray:none;stroke-opacity:1"
         d="m 4732.09,2992.85 c 6.67,13.77 -1.02,15.33 -4.22,29.87 -9.88,44.78 -15.2,90.88 -25,136.07 -8.53,39.37 -11.56,89.6 -31.55,125.67 -13.63,24.61 -49.25,55.39 -71.66,70.75 -217.24,148.89 -462.88,-8.76 -608.04,-182.12 -31.59,-37.73 -51.11,-86.78 -71.59,-131.22 -23.54,-51.1 -38.1,-95.42 -28.14,-152.33 16.95,-96.84 103.61,-193.53 166.86,-262.43 77.95,-84.91 208.31,-220.25 339.37,-169.62 34.76,13.43 77.72,34.9 101.23,64.69 31.84,40.36 44.23,99.6 63.36,146.71 19.27,47.48 43.04,94.91 59.22,143.42 15.69,47.08 0.65,111.31 -2.25,160.77 -5.76,98.18 -14.17,201.9 -115.5,243.78 -71.9,29.72 -155.64,32.15 -223.72,-10.57 -30.69,-19.26 -59.34,-40.84 -90.66,-59.52 -47.92,-28.59 -72.02,-57.84 -101.28,-105.9 -30.9,-50.77 -46.72,-80.75 -21.48,-138.59 43.01,-98.57 130.81,-178.77 216.62,-240.29 39.56,-28.36 66.42,-48.2 111.84,-23.83 45.3,24.31 56.31,79.2 74,123.71 20.8,52.34 56.64,110.73 59.67,168.06 2.89,54.91 -38.96,62.65 -81.02,83.67 -20,10 -62.18,34.16 -88.09,28.56 -17.61,-3.82 -41.97,-45.01 -52.5,-59.76 -18.54,-25.99 -32.56,-82.54 15.64,-84.72 5.47,11.07 21.46,17.59 31.68,24.15 35.09,22.49 85.38,26.34 127.33,32.28 56.9,8.05 113.09,5.79 169.54,18.1 16.76,3.66 31.61,3.86 47.96,6.51 18.2,2.95 30.76,12.45 48.29,15.41" /></g></g></svg>